<?xml version="1.0" encoding="UTF-8" standalone="no"?>
<!-- Created with Inkscape (http://www.inkscape.org/) -->

<svg
   xmlns:dc="http://purl.org/dc/elements/1.1/"
   xmlns:cc="http://creativecommons.org/ns#"
   xmlns:rdf="http://www.w3.org/1999/02/22-rdf-syntax-ns#"
   xmlns:svg="http://www.w3.org/2000/svg"
   xmlns="http://www.w3.org/2000/svg"
   xmlns:sodipodi="http://sodipodi.sourceforge.net/DTD/sodipodi-0.dtd"
   xmlns:inkscape="http://www.inkscape.org/namespaces/inkscape"
   width="512"
   height="512"
   viewBox="0 0 135.46666 135.46667"
   version="1.1"
   id="svg8"
   inkscape:version="0.92.5 (2060ec1f9f, 2020-04-08)"
   sodipodi:docname="logo512.svg">
  <defs
     id="defs2" />
  <sodipodi:namedview
     id="base"
     pagecolor="#ffffff"
     bordercolor="#666666"
     borderopacity="1.0"
     inkscape:pageopacity="0.0"
     inkscape:pageshadow="2"
     inkscape:zoom="0.7"
     inkscape:cx="380.68478"
     inkscape:cy="122.69645"
     inkscape:document-units="mm"
     inkscape:current-layer="layer1"
     showgrid="false"
     units="px"
     inkscape:window-width="1600"
     inkscape:window-height="835"
     inkscape:window-x="0"
     inkscape:window-y="0"
     inkscape:window-maximized="1" />
  <metadata
     id="metadata5">
    <rdf:RDF>
      <cc:Work
         rdf:about="">
        <dc:format>image/svg+xml</dc:format>
        <dc:type
           rdf:resource="http://purl.org/dc/dcmitype/StillImage" />
        <dc:title></dc:title>
      </cc:Work>
    </rdf:RDF>
  </metadata>
  <g
     inkscape:label="Layer 1"
     inkscape:groupmode="layer"
     id="layer1"
     transform="translate(0,-161.53332)">
    <g
       id="g905"
       transform="translate(3.5603841e-6,5.9944662e-6)">
      <circle
         r="58.742607"
         cy="229.26665"
         cx="67.73333"
         id="path899"
         style="opacity:1;vector-effect:none;fill:#da6278;fill-opacity:1;stroke:#000000;stroke-width:5.08269882;stroke-linecap:butt;stroke-linejoin:miter;stroke-miterlimit:4;stroke-dasharray:none;stroke-dashoffset:0;stroke-opacity:1" />
      <path
         sodipodi:nodetypes="ccscssccscsscsccccssscsssscsccccsscccscccccccccscccccssccscccccccccccsscsssscssccsccsscccccccccsccccsscccssccsscccssccssccscccscccscccscccccccccccccccccccccc"
         inkscape:connector-curvature="0"
         id="path826"
         d="m 34.520049,286.83773 c -1.73957,-0.24041 -4.98226,-1.15504 -6.84645,-1.9311 -3.25664,-1.35575 -6.34013,-3.58494 -9.56827,-6.91735 -5.89686,-6.08733 -8.1794604,-11.53331 -8.1334404,-19.40528 0.0237,-4.04824 0.3748294,-5.85749 1.9091504,-9.83611 1.79335,-4.65032 1.14231,-3.94784 35.9536,-38.79477 17.70656,-17.72469 32.9736,-32.80948 33.92677,-33.52176 2.22493,-1.66263 6.11868,-3.52296 8.9826,-4.29164 1.95148,-0.52379 2.8614,-0.60163 6.87916,-0.58847 4.268611,0.014 4.814101,0.0716 6.985101,0.73798 4.54555,1.39522 7.8565,3.32946 11.60235,6.77807 4.16821,3.83746 7.23461,8.81566 8.56193,13.90004 0.56656,2.17023 0.69626,3.28788 0.72155,6.2177 0.0509,5.89227 -1.32733,10.47272 -4.65717,15.47813 -1.15001,1.72869 -63.392991,64.26846 -66.238191,66.55403 -3.29607,2.64775 -7.75186,4.66983 -11.88234,5.3923 -2.18027,0.38136 -6.26521,0.49511 -8.19635,0.22823 z m 8.56123,-5.52352 c 2.05194,-0.50351 5.53751,-2.06703 7.35962,-3.3013 1.70292,-1.15353 63.741261,-63.09735 65.566311,-65.46641 2.90585,-3.77203 4.37012,-8.06957 4.37012,-12.82602 0,-3.39635 -0.32306,-5.29886 -1.35539,-7.98198 -1.07528,-2.79473 -2.55263,-4.97979 -5.22768,-7.73196 -3.67414,-3.78006 -6.58707,-5.62569 -10.80231,-6.84433 -2.74622,-0.79394 -8.297131,-0.83807 -10.925031,-0.0868 -2.33217,0.66669 -5.30713,2.04425 -6.96486,3.2251 -1.6225,1.15575 -63.6629,63.0094 -65.51615,65.31895 -2.97573,3.70838 -4.5351,8.2503 -4.53442,13.20721 8.7e-4,6.38887 1.94791,10.79569 7.03314,15.91841 4.05228,4.08217 7.34819,5.92594 12.25933,6.85804 2.42287,0.45985 6.19427,0.33516 8.73732,-0.28887 z m -2.24907,-9.36653 c -0.7422,-0.29951 -1.41737,-1.28358 -1.41737,-2.06582 0,-0.91974 1.36705,-2.16974 2.37292,-2.16974 2.00366,0 2.86501,2.50528 1.31094,3.81294 -0.85127,0.7163 -1.32149,0.80398 -2.26649,0.42262 z m -11.11283,-4.59814 c -1.52233,-1.30946 -0.51644,-3.87075 1.52016,-3.87075 1.86476,0 2.79734,2.49159 1.44045,3.84848 -0.83644,0.83645 -2.00386,0.84523 -2.96061,0.0223 z m 16.43031,-1.87435 c -0.83645,-0.83644 -0.84522,-2.00386 -0.0223,-2.9606 1.14089,-1.32637 3.30289,-0.8093 3.72991,0.89206 0.52842,2.10542 -2.16697,3.60922 -3.70765,2.06854 z m -9.77756,-3.90347 c -2.02188,-1.15955 -1.29926,-4.17835 1.00019,-4.17835 2.24876,0 3.00301,3.05707 1.00869,4.08837 -0.93357,0.48277 -1.2957,0.49899 -2.00888,0.09 z m 15.86298,-2.18195 c -0.95621,-0.95619 -0.88741,-2.27828 0.16461,-3.1635 0.44773,-0.37674 1.11173,-0.68498 1.47556,-0.68498 0.81458,0 2.20831,1.33402 2.20831,2.11371 0,2.07201 -2.42027,3.16299 -3.84848,1.73477 z m -27.27823,-3.15273 c -0.55525,-0.47761 -0.72913,-0.86436 -0.72913,-1.62179 0,-0.75743 0.17388,-1.14418 0.72913,-1.62179 2.20542,-1.89702 5.08158,1.33003 2.9193,3.27543 -0.85625,0.77037 -2.00119,0.75787 -2.9193,-0.0318 z m 16.96173,-1.03391 c -1.01258,-0.87099 -1.02617,-2.40975 -0.0289,-3.26759 0.9407,-0.80916 2.02293,-0.80126 2.91043,0.0213 2.1077,1.95335 -0.7032,5.12009 -2.88155,3.24634 z m 23.82227,-0.71443 -12.10469,-11.83034 -11.77597,-11.8389 c -0.55501,-0.55797 -0.58725,-1.20052 -0.0334,-1.75964 l 12.73543,-12.85697 13.22916,-12.66565 c 0.31896,-0.30537 1.01188,-0.33831 1.32444,-0.0264 8.02577,8.00907 24.07704,24.02748 24.07704,24.02748 0.32773,0.32706 0.26107,1.05375 -0.0596,1.38773 l -12.50838,13.02776 -12.81612,12.50156 c -0.49349,0.48138 -1.57487,0.51522 -2.0679,0.0334 z m 11.29399,-16.17379 10.0775,-10.08264 -9.22912,-9.23195 c -5.07601,-5.07757 -9.30974,-9.23194 -9.40829,-9.23194 -0.0985,0 -4.71883,4.54752 -10.26731,10.10561 l -10.08816,10.10561 9.20615,9.20897 c 5.06339,5.06493 9.30191,9.20897 9.41894,9.20897 0.11704,0 4.74767,-4.53719 10.29029,-10.08263 z m -46.23102,11.81445 c -1.06359,-1.0636 -0.70458,-2.83459 0.69382,-3.42258 1.07242,-0.45091 1.98503,-0.254 2.63145,0.5678 0.67508,0.85822 0.66548,1.92907 -0.0252,2.80707 -0.75149,0.95537 -2.36907,0.97875 -3.30011,0.0477 z m 17.67824,-0.0658 c -0.8061,-0.1557 -1.65892,-1.30875 -1.65892,-2.24292 0,-1.47747 1.75911,-2.49415 3.29544,-1.90461 0.68623,0.26333 1.25885,1.62248 1.06172,2.52004 -0.15012,0.68348 -1.50466,1.90133 -1.97591,1.7765 -0.0728,-0.0193 -0.39781,-0.0863 -0.72233,-0.14901 z m -11.59343,-6.07031 c -1.52979,-1.65067 -0.14586,-3.82361 2.26159,-3.55099 0.65336,0.074 1.5875,1.31765 1.5875,2.11349 0,0.40882 -0.24676,1.05703 -0.54837,1.44045 -0.77397,0.98395 -2.38743,0.98251 -3.30072,-0.003 z m 57.94436,-27.20142 c -0.91032,-0.91032 -0.86283,-2.08829 0.12397,-3.07509 0.46624,-0.46624 1.05226,-0.77339 1.47556,-0.77339 0.85512,0 2.24896,1.31001 2.24896,2.1137 0,2.07201 -2.42027,3.16299 -3.84849,1.73478 z m -9.96115,-4.91742 c -0.67255,-0.67255 -0.77765,-0.94351 -0.64139,-1.65364 0.19123,-0.99662 1.2672,-2.03992 2.10378,-2.03992 0.58311,0 1.71716,0.63754 2.09059,1.17528 0.4327,0.62309 0.19771,2.02854 -0.44694,2.6732 -0.92161,0.92161 -2.08767,0.86345 -3.10604,-0.15492 z m 16.046561,-1.168 c -0.91031,-0.91032 -0.86282,-2.08829 0.12396,-3.07508 1.00357,-1.00357 1.94756,-1.00357 2.95112,0 0.86191,0.8619 0.96043,1.53704 0.38631,2.64726 -0.66453,1.28507 -2.39078,1.49843 -3.46139,0.42782 z m -9.380671,-3.76525 c -2.36584,-0.89764 -1.90084,-4.33212 0.58328,-4.30815 2.66004,0.0257 3.07289,3.78111 0.47505,4.32121 -0.3638,0.0756 -0.84005,0.0698 -1.05833,-0.0131 z m 16.476191,-1.64627 c -1.79209,-0.47661 -2.30144,-2.36859 -0.99697,-3.7033 1.1201,-1.14606 3.11965,-0.66872 3.52155,0.84067 0.30206,1.13441 -0.0725,2.14936 -0.95563,2.58932 -0.92957,0.46311 -0.88469,0.4553 -1.56895,0.27331 z M 79.487189,201.446 c -1.10068,-1.10068 -0.70358,-2.83801 0.79144,-3.46267 1.07931,-0.45097 1.99015,-0.20378 2.63347,0.71469 1.02933,1.46958 -0.006,3.39741 -1.82539,3.39741 -0.65596,0 -1.15114,-0.20105 -1.59952,-0.64943 z m 17.17178,-1.03608 c -1.52234,-1.30945 -0.51645,-3.87074 1.52015,-3.87074 1.12444,0 2.089891,1.03893 2.089891,2.24896 0,1.97053 -2.105141,2.91625 -3.610041,1.62178 z m -10.61689,-4.57699 c -0.60164,-0.24207 -1.1633,-1.6643 -0.98245,-2.48773 0.35856,-1.63251 2.77925,-2.18569 3.81309,-0.87138 1.16611,1.48246 0.26969,3.55376 -1.52135,3.5153 -0.53515,-0.0115 -1.12432,-0.0818 -1.30929,-0.15619 z m 17.269621,-1.18677 c -0.83951,-0.45919 -1.19062,-1.05075 -1.19062,-2.00603 0,-1.83204 2.05293,-2.80473 3.50646,-1.66138 0.89089,0.70077 1.10368,1.66553 0.58752,2.66366 -0.59437,1.14939 -1.84597,1.58209 -2.90336,1.00375 z m -10.715611,-4.63833 c -0.91562,-0.34741 -1.5875,-1.24709 -1.5875,-2.12575 0,-2.26476 3.09616,-3.07571 4.12761,-1.08111 0.46506,0.89934 0.30224,2.07091 -0.37229,2.6787 -0.52956,0.47716 -1.60906,0.74016 -2.16782,0.52816 z"
         style="fill:#000000;stroke:none;stroke-width:0.26458332" />
      <path
         sodipodi:nodetypes="cccccscsssccccssccccsccscsscccccccsccccccscssccccccccscssccccsssccccccscccccccccccccccccccccc"
         inkscape:connector-curvature="0"
         id="path837"
         d="m 97.504131,176.59829 c -1.02975,-0.008 -2.05559,0.0323 -2.98845,0.12143 -0.93286,0.0891 -1.77285,0.22715 -2.42983,0.41497 -0.58304,0.16667 -1.20588,0.37773 -1.83864,0.61908 -0.63277,0.24135 -1.27529,0.5128 -1.89653,0.80047 -0.62124,0.28766 -1.22146,0.59148 -1.76992,0.8971 -0.54846,0.30562 -1.04491,0.61326 -1.45934,0.90847 -0.40563,0.28894 -4.58744,4.37148 -10.66085,10.36888 -6.07341,5.99739 -14.03877,13.90929 -22.01106,21.85758 -7.972281,7.94829 -15.951702,15.933 -22.053954,22.07462 -6.102251,6.14162 -10.327241,10.44055 -10.790555,11.01793 -0.371966,0.46355 -0.721607,0.94008 -1.049031,1.42886 -0.327425,0.48877 -0.632352,0.98985 -0.914673,1.50223 -0.282321,0.51237 -0.542107,1.03611 -0.778764,1.57045 -0.236657,0.53433 -0.450357,1.07883 -0.640788,1.63349 -0.190431,0.55466 -0.357617,1.11905 -0.501261,1.6924 -0.143644,0.57335 -0.263889,1.15574 -0.360185,1.74615 -0.09629,0.5904 -0.168655,1.18889 -0.217041,1.79472 -0.04839,0.60583 -0.07295,1.21903 -0.07286,1.83865 1.09e-4,0.79861 0.0308,1.56645 0.09405,2.30839 0.06325,0.74193 0.159364,1.45806 0.290421,2.15387 0.131057,0.69581 0.297229,1.37118 0.500745,2.0314 0.203516,0.66021 0.444389,1.30528 0.72502,1.94045 0.280631,0.63516 0.600847,1.26037 0.963249,1.88102 0.362402,0.62065 0.767117,1.23696 1.215946,1.85363 0.448829,0.61668 0.94165,1.2335 1.481563,1.85674 0.539913,0.62324 1.126513,1.25257 1.762167,1.89291 1.013071,1.02054 1.979124,1.90141 2.934704,2.66288 0.47779,0.38074 0.95309,0.73149 1.430404,1.05523 0.477314,0.32375 0.956705,0.62053 1.442805,0.89246 0.486103,0.27193 0.978961,0.51883 1.483114,0.74414 0.504153,0.2253 1.019342,0.42902 1.55081,0.61288 1.062938,0.36771 2.190094,0.65736 3.41788,0.89038 0.605719,0.11497 1.295313,0.19346 2.029333,0.23668 0.73402,0.0432 1.512123,0.0512 2.293916,0.0253 0.781799,-0.0259 1.567609,-0.0855 2.316654,-0.17777 0.74905,-0.0923 1.46127,-0.2171 2.09703,-0.37311 0.51299,-0.12587 1.11579,-0.31781 1.75959,-0.55448 0.64379,-0.23668 1.32877,-0.51812 2.00659,-0.82218 0.67783,-0.30405 1.34864,-0.63058 1.96371,-0.95859 0.61506,-0.32802 1.17434,-0.65727 1.629871,-0.96584 0.21287,-0.14419 1.36843,-1.23856 3.23133,-3.04736 1.8629,-1.8088 4.43295,-4.33223 7.47499,-7.33547 6.08409,-6.00646 14.05592,-13.93164 22.03122,-21.89478 7.97529,-7.96314 15.95408,-15.96428 22.053439,-22.12268 6.09935,-6.15841 10.31931,-10.47373 10.77557,-11.06599 0.36323,-0.47151 0.70402,-0.9514 1.02216,-1.43919 0.31814,-0.4878 0.6133,-0.98394 0.88625,-1.48777 0.27296,-0.50382 0.52369,-1.01519 0.75138,-1.53479 0.22768,-0.5196 0.43262,-1.04722 0.61495,-1.58233 0.18232,-0.53511 0.34164,-1.07796 0.47852,-1.62832 0.13688,-0.55037 0.25127,-1.10845 0.34261,-1.6738 0.0913,-0.56536 0.15996,-1.13816 0.20568,-1.71825 0.0457,-0.58008 0.0682,-1.16709 0.0682,-1.76164 0,-0.84909 -0.0202,-1.60481 -0.0667,-2.30271 -0.0464,-0.69789 -0.11886,-1.33817 -0.22376,-1.95595 -0.1049,-0.61778 -0.24209,-1.21337 -0.41755,-1.82211 -0.17546,-0.60874 -0.3889,-1.2304 -0.64699,-1.90118 -0.26882,-0.69868 -0.563,-1.35953 -0.89451,-2.00039 -0.33152,-0.64086 -0.70077,-1.26173 -1.11983,-1.88154 -0.41907,-0.61981 -0.88807,-1.23876 -1.41956,-1.8743 -0.53148,-0.63554 -1.12544,-1.28807 -1.7942,-1.97611 -0.91854,-0.94502 -1.78917,-1.76871 -2.6448,-2.49235 -0.85563,-0.72364 -1.69613,-1.34721 -2.55333,-1.89033 -0.8572,-0.54312 -1.73136,-1.00627 -2.65462,-1.40973 -0.92327,-0.40346 -1.89537,-0.74696 -2.94917,-1.05162 -0.68656,-0.19848 -1.54885,-0.35019 -2.49649,-0.45423 -0.947659,-0.10405 -1.980939,-0.1608 -3.010679,-0.16898 z m -29.02924,26.7534 c 0.12609,-0.004 0.25197,0.0121 0.36587,0.0481 0.1139,0.036 0.2159,0.092 0.29404,0.17002 8.02577,8.00907 24.07708,24.02747 24.07708,24.02747 0.0819,0.0818 0.13932,0.18865 0.17415,0.30799 0.0348,0.11934 0.0472,0.25129 0.0393,0.38344 -0.008,0.13215 -0.0359,0.26478 -0.0822,0.38499 -0.0462,0.1202 -0.11052,0.22811 -0.19068,0.31161 l -12.50829,13.02763 -12.81627,12.50156 c -0.12337,0.12034 -0.28351,0.21261 -0.46199,0.27595 -0.17847,0.0633 -0.37522,0.0976 -0.57205,0.1018 -0.19683,0.004 -0.39364,-0.0215 -0.57206,-0.0785 -0.17842,-0.0571 -0.33873,-0.14516 -0.46199,-0.26561 L 53.655111,242.71785 41.87909,230.87878 c -0.13875,-0.13949 -0.24436,-0.28457 -0.31678,-0.43201 -0.0724,-0.14744 -0.11165,-0.29738 -0.11575,-0.44752 -0.004,-0.15014 0.0268,-0.30045 0.093,-0.44804 0.0662,-0.14758 0.16799,-0.29223 0.30645,-0.43201 l 12.735141,-12.8571 13.22916,-12.66589 c 0.15948,-0.15268 0.41239,-0.23701 0.66456,-0.24443 z"
         style="opacity:1;vector-effect:none;fill:#fbdae0;fill-opacity:1;stroke:none;stroke-width:0.26458335;stroke-linecap:butt;stroke-linejoin:miter;stroke-miterlimit:4;stroke-dasharray:none;stroke-dashoffset:0;stroke-opacity:1" />
      <path
         inkscape:connector-curvature="0"
         id="path865"
         d="m 68.474829,209.76843 c -0.0985,0 -4.71859,4.54723 -10.26707,10.10532 l -10.08827,10.10585 9.20615,9.20874 c 5.06339,5.06493 9.30204,9.20925 9.41907,9.20925 0.11704,0 4.7477,-4.53766 10.29033,-10.0831 l 10.07742,-10.08259 -9.22941,-9.23199 c -5.07601,-5.07758 -9.30966,-9.23148 -9.40822,-9.23148 z"
         style="opacity:1;vector-effect:none;fill:#459a80;fill-opacity:1;stroke:none;stroke-width:0.26458335;stroke-linecap:butt;stroke-linejoin:miter;stroke-miterlimit:4;stroke-dasharray:none;stroke-dashoffset:0;stroke-opacity:1" />
    </g>
  </g>
</svg>
